<svg id="Laag_1" data-name="Laag 1" xmlns="http://www.w3.org/2000/svg" xmlns:xlink="http://www.w3.org/1999/xlink" viewBox="0 0 200 200"><defs><style>.cls-1{fill:none;}.cls-2{fill:#e4c5ff;}.cls-3{fill:#599bff;}.cls-4{fill:#1b6eff;}.cls-5{fill:#e4e4e4;}.cls-6{fill:#589bff;}.cls-7{fill:#cbcbcb;}.cls-8{fill:#adadad;}.cls-9{fill:#989898;}.cls-10{fill:#fff;}.cls-11{fill:#666;}.cls-12{fill:#004472;}.cls-13{clip-path:url(#clip-path);}.cls-14{fill:#7c7c7c;}.cls-15{fill:#aeaeae;}.cls-16{fill:#979797;}.cls-17{fill:#fbb3ff;}</style><clipPath id="clip-path"><path class="cls-1" d="M130.2,134.26c-.31-6.6-.82-10.8-.82-12.9a11.63,11.63,0,0,1,.94-5H103.51l-6.05,12.24a25.36,25.36,0,0,0-6.92-4.18h0l.62,3.75a8.56,8.56,0,0,1-.93,5.44,6.51,6.51,0,0,1-6.12,3.59c-4.7,0-9-5.55-15.31-10.28-6.25,4.72-10.61,10.28-15.3,10.28h0a6.44,6.44,0,0,1-6.29-7.82l1.28-5.9A35.38,35.38,0,0,0,30.57,134.7a73.42,73.42,0,0,0,79.95,49.84c15.85-6.53,19.93-22.34,19.93-39.82C130.45,140.72,130.34,137.24,130.2,134.26Z"/></clipPath></defs><path class="cls-2" d="M195.71,86.65V102a7,7,0,1,1-14,0V86.65a7,7,0,1,1,14,0Z"/><path class="cls-3" d="M181.26,79.63h7.44a7,7,0,0,0-7,7V102a7,7,0,0,0,7,7H181a7,7,0,0,1-7-7V86.65a7,7,0,0,1,7-7Z"/><path class="cls-4" d="M173.51,79.63H181a7,7,0,0,0-7,7V102a7,7,0,0,0,7,7h-7.44a7,7,0,0,1-6.65-4.77,7.31,7.31,0,0,1-.36-2.25V86.65a7.26,7.26,0,0,1,.36-2.25,7.11,7.11,0,0,1,3.69-4.12A7,7,0,0,1,173.51,79.63Z"/><path class="cls-5" d="M173.56,109.05q.06,1.42.06,2.88a73,73,0,0,1-13.48,42.37l-8.4-27.22H153v-5.91a5.44,5.44,0,0,0,5-5.43V114.1h3.28a10.42,10.42,0,0,0,9.3-5.71,7,7,0,0,0,3,.66Z"/><path class="cls-6" d="M170.55,80.28a7.11,7.11,0,0,0-3.69,4.12H160.8v19.88h6.06a7.06,7.06,0,0,0,3.69,4.11,10.42,10.42,0,0,1-9.3,5.71H146a10.45,10.45,0,0,0,10.44-10.44V85A10.44,10.44,0,0,0,146,74.58h15.23a10.45,10.45,0,0,1,9.3,5.7Z"/><path class="cls-2" d="M166.86,84.4h0a7.26,7.26,0,0,0-.36,2.25V102a7.31,7.31,0,0,0,.36,2.25H160.8V84.4Z"/><path class="cls-5" d="M161.29,71.22c.79,1.18,1.55,2.39,2.27,3.62a10.35,10.35,0,0,0-2.31-.26H157V71.22Z"/><path class="cls-6" d="M151.74,127.08l8.4,27.22a71.75,71.75,0,0,1-7,8.41l-2.36-7.63-4.61-14.93-4-13.07Z"/><path class="cls-7" d="M158,114.1v1.64a5.44,5.44,0,0,1-5,5.43l-.44,0h-12a4.41,4.41,0,0,1-.52,0,5.44,5.44,0,0,1-4.94-5.42V114.1H158Z"/><path class="cls-7" d="M157,71.22v3.36H143.73V55.67H157V59h-3.13a6.1,6.1,0,1,0,0,12.19Z"/><path class="cls-4" d="M176.14,59H153.85a6.1,6.1,0,1,0,0,12.19h22.29a6.1,6.1,0,0,0,0-12.19Z"/><path class="cls-5" d="M150.82,155.08l2.36,7.63c-.77.8-1.55,1.59-2.36,2.35Z"/><path class="cls-4" d="M150.82,155.08v10a72.39,72.39,0,0,1-9,7.29h0v-18l4.37-14.15Z"/><path class="cls-6" d="M142.17,127.08l4,13.07-4.37,14.15L135,176.55a72.52,72.52,0,0,1-11,4.81l16.77-54.28Z"/><path class="cls-8" d="M142.29,101.67a4.24,4.24,0,0,1,1.59,3.56c0,6.31-7.72,4.91-11.89,8.87h0a7.61,7.61,0,0,0-1.66,2.31H103.51l5.85-11.85a33.65,33.65,0,0,1,12-14.67c4.61-3.16,9.42-4.79,13-4.79,4.26,0,7.65,2,7.65,5.53a7.41,7.41,0,0,1-.65,2.86,4.61,4.61,0,0,1,2.41,4.24v0A6.24,6.24,0,0,1,142.29,101.67Z"/><path class="cls-9" d="M143.73,55.67V74.58h-8.29a4.51,4.51,0,0,1-4.51-4.51V60.18a4.51,4.51,0,0,1,4.51-4.51Z"/><path class="cls-5" d="M141.84,172.35h0a73.71,73.71,0,0,1-6.87,4.2l6.87-22.25Z"/><path class="cls-5" d="M130.2,134.26c-.31-6.6-.82-10.8-.82-12.9a11.63,11.63,0,0,1,.94-5A7.61,7.61,0,0,1,132,114.1h3.12v1.64a5.44,5.44,0,0,0,4.94,5.42h0v5.91h.65l-16.77,54.28a72.08,72.08,0,0,1-13.4,3.18c15.85-6.53,19.93-22.34,19.93-39.82C130.45,140.72,130.34,137.24,130.2,134.26Z"/><path class="cls-4" d="M140,127.08v-5.91h0a4.41,4.41,0,0,0,.52,0h12l.44,0v5.91H140Z"/><path class="cls-10" d="M130.2,134.26c-.31-6.6-.82-10.8-.82-12.9a11.63,11.63,0,0,1,.94-5H103.51l-6.05,12.24a25.36,25.36,0,0,0-6.92-4.18h0l.62,3.75a8.56,8.56,0,0,1-.93,5.44,6.51,6.51,0,0,1-6.12,3.59c-4.7,0-9-5.55-15.31-10.28-6.25,4.72-10.61,10.28-15.3,10.28h0a6.44,6.44,0,0,1-6.29-7.82l1.28-5.9A35.38,35.38,0,0,0,30.57,134.7a73.42,73.42,0,0,0,79.95,49.84c15.85-6.53,19.93-22.34,19.93-39.82C130.45,140.72,130.34,137.24,130.2,134.26Z"/><path class="cls-4" d="M105.44,55.36a26.38,26.38,0,0,1,.53,5.35,35.61,35.61,0,0,1-1.92,11.19h-.9A6.92,6.92,0,0,1,97.83,65C97.83,60.48,101.51,55.84,105.44,55.36Z"/><path class="cls-10" d="M105.06,53.75c.14.53.28,1.07.38,1.61-3.93.48-7.61,5.12-7.61,9.61a6.92,6.92,0,0,0,5.32,6.92h-1.66c-7,0-10-4.51-10-8.35,0-5.11,5-10.07,11.1-10.07A11.45,11.45,0,0,1,105.06,53.75Z"/><path class="cls-5" d="M102.78,38.64a8.57,8.57,0,0,1,.14,1.51,12.38,12.38,0,0,1-1.55,6.28h0A19.58,19.58,0,0,1,103,48.85a20.87,20.87,0,0,1,2.06,4.9c.14.53.28,1.07.38,1.61a26.38,26.38,0,0,1,.53,5.35,35.61,35.61,0,0,1-1.92,11.19,1.27,1.27,0,0,0-.06.18h0c-.23.7-.49,1.4-.77,2.09h0c3.78,0,5.62,2.12,5.62,4.32s-1.63,4.23-4.8,4.75c.13,1.16.28,2.33.44,3.51H97.63a10.66,10.66,0,0,0,7.49,4.66,67.14,67.14,0,0,1,.6,8.23c0,13.22-6.44,18.91-16.08,19.33h0l.28,1.69.62,3.81h0a25.36,25.36,0,0,1,6.92,4.18l6.05-12.24,5.85-11.85a33.65,33.65,0,0,1,12-14.67V74.58h14a4.51,4.51,0,0,1-4.51-4.51V60.18a4.51,4.51,0,0,1,4.51-4.51h11.89A73,73,0,0,0,102.78,38.64Z"/><path class="cls-11" d="M31.08,87.65a42.34,42.34,0,0,0,7.13,15A59.21,59.21,0,0,0,44,109.5a73.86,73.86,0,0,0,6.22,5.59h0l0,0c6.82-3.43,13.1-8.12,15.07-15.3C57,95.65,54.49,89.6,54.49,84.49c0-6.7,4.45-10.47,9.42-10.47,3.64,0,6.15,2,8,4.82a67.19,67.19,0,0,0,3.35-11.5c5-2.31,9.12-6.46,9.12-12.44a15.68,15.68,0,0,0-2.55-8.47h19.49a12.38,12.38,0,0,0,1.55-6.28,8.57,8.57,0,0,0-.14-1.51c-.87-4.8-5.74-9.11-12.24-9.11-9.85,0-20.11,8.16-28.45,8.16a19.06,19.06,0,0,1-5.57-.76,19.49,19.49,0,0,0,1.08,4.3A17.59,17.59,0,0,0,42.91,52.94C34.12,57.31,30,67,30,77.86a44,44,0,0,0,.5,6.63c.16,1.07.36,2.12.61,3.16"/><path class="cls-9" d="M91.16,128.22a8.56,8.56,0,0,1-.93,5.44,6.51,6.51,0,0,1-6.12,3.59c-4.7,0-9-5.55-15.31-10.28,4.63-3.5,10.31-6.55,17.94-6.55a21.28,21.28,0,0,1,3.18.24l.62,3.81Z"/><path class="cls-9" d="M68.8,127c-6.25,4.72-10.61,10.28-15.3,10.28h0a6.44,6.44,0,0,1-6.29-7.82l1.28-5.9.66-3c.58,0,1.16-.07,1.74-.07C58.5,120.42,64.17,123.47,68.8,127Z"/><path class="cls-12" d="M50.3,115.07v.06l0,0Z"/><path class="cls-5" d="M50.29,115.13l-1.17,5.36-.66,3A35.38,35.38,0,0,0,30.57,134.7a73.79,73.79,0,0,1,.51-47,42.34,42.34,0,0,0,7.13,15A59.21,59.21,0,0,0,44,109.5a73.86,73.86,0,0,0,6.22,5.59h0Z"/><g class="cls-13"><rect class="cls-7" x="42.91" y="161.26" width="14.74" height="15.64"/><rect class="cls-7" x="42.91" y="130.88" width="14.74" height="15.64"/><rect class="cls-7" x="103.67" y="130.88" width="14.74" height="15.64"/><rect class="cls-7" x="103.67" y="161.26" width="14.74" height="15.64"/><rect class="cls-7" x="73.29" y="130.88" width="14.74" height="15.64"/><rect class="cls-7" x="73.29" y="161.26" width="14.74" height="15.64"/><rect class="cls-7" x="57.65" y="116.15" width="15.64" height="14.74"/><rect class="cls-7" x="88.03" y="116.15" width="15.64" height="14.74"/><rect class="cls-7" x="27.27" y="116.15" width="15.64" height="14.74"/><rect class="cls-7" x="118.4" y="116.15" width="18.46" height="14.74"/><rect class="cls-9" x="42.91" y="116.15" width="14.74" height="14.74"/><rect class="cls-9" x="103.67" y="116.15" width="14.74" height="14.74"/><rect x="73.29" y="116.15" width="14.74" height="14.74"/><rect class="cls-7" x="118.4" y="146.52" width="18.46" height="14.74"/><rect class="cls-7" x="27.27" y="146.52" width="15.64" height="14.74"/><rect class="cls-7" x="57.65" y="146.52" width="15.64" height="14.74"/><rect class="cls-7" x="88.03" y="146.52" width="15.64" height="14.74"/><rect class="cls-9" x="42.91" y="146.52" width="14.74" height="14.74"/><rect class="cls-9" x="103.67" y="146.52" width="14.74" height="14.74"/><rect class="cls-9" x="73.29" y="146.52" width="14.74" height="14.74"/><rect class="cls-7" x="88.03" y="176.9" width="15.64" height="14.74"/><rect class="cls-7" x="57.65" y="176.9" width="15.64" height="14.74"/><rect class="cls-9" x="103.67" y="176.9" width="14.74" height="14.74"/><rect class="cls-9" x="73.29" y="176.9" width="14.74" height="14.74"/></g><path class="cls-5" d="M81.38,172.19a.69.69,0,0,1-.5-.21C70.47,161.56,63,155.74,46.38,148.74a.71.71,0,0,1,.55-1.31c16.41,6.9,24,12.68,34.12,22.72l.43-1.43c3.23-10.6,8.62-28.35,17.62-46.81a.71.71,0,1,1,1.28.62c-8.95,18.36-14.33,36-17.54,46.6-.28.9-.54,1.76-.78,2.56a.71.71,0,0,1-.51.48Z"/><path class="cls-4" d="M144.72,108.42h-.15a.71.71,0,0,1-.55-.84,9.12,9.12,0,0,0,.16-1.1c.42-5-4-5.79-5.34-5.91-4.71-.39-8.67,2.32-10,5.07a.7.7,0,0,1-1,.32.69.69,0,0,1-.32-.94c2.07-4.25,7.42-6.19,11.4-5.86,4.45.38,7,3.23,6.63,7.44a9.55,9.55,0,0,1-.18,1.26A.7.7,0,0,1,144.72,108.42Z"/><path class="cls-4" d="M147,101.7a.7.7,0,0,1-.69-.56c-1-4.92-2-7.31-6.81-8-4-.56-8.75,1.22-10.94,4.15a.72.72,0,0,1-1,.14.71.71,0,0,1-.14-1c2.48-3.31,7.76-5.33,12.27-4.71,5.86.82,7,4.28,8,9.09a.7.7,0,0,1-.55.84Z"/><path class="cls-14" d="M80.52,63.84A8.07,8.07,0,0,0,74.1,61c-1.73,0-3.56.3-5.28.3-4.83,0-6.42-2.67-6.42-7.41,0-.54,0-1.07,0-1.6,0-3.78-1-6.65-5.37-6.65-2.34,0-4.78,1-7.18,1a6.34,6.34,0,0,1-2.61-.48,16.85,16.85,0,0,0-4.34,6.82c-7.93,4-12.09,12.25-12.82,21.78a26.53,26.53,0,0,1,5.34-1c9,0,1.23,17.14,14.28,17.14,1.94,0,4-.31,6-.42a15,15,0,0,1-1.2-5.9c0-6.7,4.45-10.47,9.42-10.47,3.64,0,6.15,2,8,4.82a67.19,67.19,0,0,0,3.35-11.5A18.69,18.69,0,0,0,80.52,63.84Z"/><path class="cls-11" d="M46.73,80.41h-.08a.7.7,0,0,1-.62-.78c0-.24,0-.49,0-.74,0-2.22-2.06-10.5-8.24-10.5a23.25,23.25,0,0,0-6.66,1.42.72.72,0,0,1-.89-.46.7.7,0,0,1,.46-.89A24.2,24.2,0,0,1,37.83,67c7.34,0,9.65,9.3,9.65,11.92a6.55,6.55,0,0,1,0,.89A.7.7,0,0,1,46.73,80.41Z"/><path class="cls-11" d="M73.78,72.7c-8.32,0-12.5-5.54-15.85-10-2.43-3.22-4.53-6-7.52-6a5.38,5.38,0,0,0-1.12.11A.71.71,0,0,1,49,55.43a7.36,7.36,0,0,1,1.39-.14c3.69,0,6.1,3.19,8.65,6.57,3.39,4.5,7.24,9.6,15.15,9.42a.71.71,0,1,1,0,1.42Z"/><path class="cls-11" d="M57.36,77.43a.68.68,0,0,1-.51-.22A23.43,23.43,0,0,1,53,71.5c-1.43-2.7-2.32-4.23-4.17-4.23a2.17,2.17,0,0,0-.66.11.72.72,0,0,1-.89-.48.71.71,0,0,1,.48-.88,3.56,3.56,0,0,1,1.07-.16c2.79,0,4,2.3,5.42,5a22.47,22.47,0,0,0,3.59,5.39.71.71,0,0,1,0,1A.69.69,0,0,1,57.36,77.43Z"/><path class="cls-14" d="M89,47.14l-.15,0a.69.69,0,0,1-.54-.84,8.76,8.76,0,0,0,.2-1.79,6.84,6.84,0,0,0-2.35-5.12.71.71,0,0,1,1-1,8.2,8.2,0,0,1,2.8,6.15,9.58,9.58,0,0,1-.24,2.09A.71.71,0,0,1,89,47.14Z"/><path class="cls-14" d="M96,47.14l-.17,0a.72.72,0,0,1-.52-.86,8.76,8.76,0,0,0,.28-2.15,5.46,5.46,0,0,0-2.12-4.51.71.71,0,1,1,.88-1.11A6.89,6.89,0,0,1,97,44.11a10.57,10.57,0,0,1-.32,2.49A.71.71,0,0,1,96,47.14Z"/><path class="cls-15" d="M108.86,78.49c0-2.2-1.84-4.32-5.62-4.32h0c.28-.69.54-1.39.77-2.09h0a1.27,1.27,0,0,1,.06-.18h-2.56c-7,0-10-4.51-10-8.35,0-5.11,5-10.07,11.1-10.07a11.45,11.45,0,0,1,2.43.27,20.87,20.87,0,0,0-2.06-4.9,19.58,19.58,0,0,0-1.66-2.42H81.88a15.68,15.68,0,0,1,2.55,8.47c0,6-4.13,10.13-9.12,12.44A67.19,67.19,0,0,1,72,78.84C70.06,76,67.55,74,63.91,74c-5,0-9.42,3.77-9.42,10.47,0,5.11,2.52,11.16,10.88,15.28-2,7.18-8.25,11.87-15.07,15.3v.06l-1.17,5.36c.58,0,1.16-.07,1.74-.07,7.64,0,13.31,3,17.94,6.55,4.63-3.5,10.31-6.55,17.94-6.55a21.28,21.28,0,0,1,3.18.24L89.64,119h0c9.64-.42,16.08-6.11,16.08-19.33a67.14,67.14,0,0,0-.6-8.23,10.66,10.66,0,0,1-7.49-4.66h6.87c-.16-1.18-.31-2.35-.44-3.51C107.23,82.72,108.86,80.57,108.86,78.49Z"/><path class="cls-14" d="M93.73,91.06a.72.72,0,0,1-.65-.42.71.71,0,0,1,.36-.94,5,5,0,0,0,3.27-4.6,5.9,5.9,0,0,0-.48-2.27.71.71,0,0,1,1.31-.54,7.34,7.34,0,0,1,.59,2.81A6.39,6.39,0,0,1,94,91,.59.59,0,0,1,93.73,91.06Z"/><circle class="cls-14" cx="85.47" cy="79.87" r="1.15"/><circle class="cls-14" cx="91.48" cy="78.27" r="1.15"/><circle class="cls-14" cx="91.32" cy="84.73" r="1.15"/><path class="cls-16" d="M69.12,152.75a.7.7,0,0,1-.71-.7V127a.71.71,0,0,1,1.42,0v25.08A.7.7,0,0,1,69.12,152.75Z"/><rect class="cls-17" x="127.77" y="67.7" width="6.48" height="12.96" rx="2.82"/><path class="cls-4" d="M156.46,85v18.64A10.45,10.45,0,0,1,146,114.1H132c4.17-4,11.89-2.56,11.89-8.87a4.24,4.24,0,0,0-1.59-3.56,6.24,6.24,0,0,0,1.52-3.9v0a4.61,4.61,0,0,0-2.41-4.24,7.41,7.41,0,0,0,.65-2.86c0-3.53-3.39-5.53-7.65-5.53-3.59,0-8.4,1.63-13,4.79V74.58H146A10.44,10.44,0,0,1,156.46,85Z"/><circle class="cls-7" cx="128.07" cy="80.23" r="1.89"/><circle class="cls-2" cx="136.8" cy="80.23" r="1.89"/></svg>